<svg xmlns="http://www.w3.org/2000/svg" viewBox="0 0 845.54 83.67"><defs><style>.cls-1{fill:#b68a4e;}.cls-2{fill:#faf6f1;}.cls-3{fill:#c52562;}</style></defs><g id="Layer_2" data-name="Layer 2"><g id="Layer_1-2" data-name="Layer 1"><path class="cls-1" d="M92.72,62.43a.87.87,0,0,0-.84-.4,1.24,1.24,0,0,0-.7.22,1.81,1.81,0,0,0-.54.8,82.1,82.1,0,0,1-4.59,10.48A10.94,10.94,0,0,1,82,78.06a11.5,11.5,0,0,1-5.37,1.11H55.77a9,9,0,0,1-4.71-.93,3.2,3.2,0,0,1-1.44-2.86V51.49h-4.5V76.34a2.27,2.27,0,0,1-.74,1.75,3.41,3.41,0,0,1-2,.84l-4.73.62c-1.1.16-1.64.52-1.64,1.08a.75.75,0,0,0,.34.64,1.69,1.69,0,0,0,1.06.26H82.14a3.4,3.4,0,0,1,1.89.54c.54.35,1,.7,1.54,1.06a2.47,2.47,0,0,0,1.47.54,1.64,1.64,0,0,0,1-.33,2,2,0,0,0,.59-1.08l4.11-18.65A1.61,1.61,0,0,0,92.72,62.43ZM90.92,17l-4-15.67a1.84,1.84,0,0,0-.51-1,1.33,1.33,0,0,0-.9-.28,2.22,2.22,0,0,0-1.55.65c-.47.43-1,.87-1.49,1.32a3,3,0,0,1-2,.68h-43a2,2,0,0,0-1.06.22.77.77,0,0,0-.34.68c0,.56.54.92,1.64,1.07l4.73.62a3.54,3.54,0,0,1,2,.84,2.3,2.3,0,0,1,.74,1.75V32.18h4.5V5H75a22.36,22.36,0,0,1,4.45.37A6.81,6.81,0,0,1,82.61,7a13.25,13.25,0,0,1,2.68,3.67,68.67,68.67,0,0,1,2.93,6.62,1.68,1.68,0,0,0,.79,1,1.82,1.82,0,0,0,1.07.2,1.08,1.08,0,0,0,.79-.5A1.17,1.17,0,0,0,90.92,17Z"/><path class="cls-1" d="M170.34,63.05a.67.67,0,0,0-.48-.17.91.91,0,0,0-.67.28,3.42,3.42,0,0,0-.57.9,24.6,24.6,0,0,1-9.43,11.64Q152.67,80,142.76,80a31.69,31.69,0,0,1-17.07-4.73A33.32,33.32,0,0,1,113.6,61.72a39.66,39.66,0,0,1-3.48-10.23h-4.94A43.38,43.38,0,0,0,109,63.72a34.71,34.71,0,0,0,12.86,14.46q8.38,5.26,20,5.26a36.88,36.88,0,0,0,12.2-1.86,29.35,29.35,0,0,0,9-4.84,22.46,22.46,0,0,0,5.57-6.46,13.7,13.7,0,0,0,1.92-6.67A.67.67,0,0,0,170.34,63.05Zm.14-41.13L164.35,3.37a2,2,0,0,0-.55-.92,1.12,1.12,0,0,0-.75-.26,1.29,1.29,0,0,0-1.38,1.14l-.51,2.25a1.32,1.32,0,0,1-1.44,1.12,7,7,0,0,1-3-1.41,29.06,29.06,0,0,0-6.08-2.82,31.36,31.36,0,0,0-10.26-1.4,33.11,33.11,0,0,0-25.77,11.75A40.53,40.53,0,0,0,107.15,26a43.81,43.81,0,0,0-1.66,6.18h4.33a41.59,41.59,0,0,1,1.67-6.66,37.08,37.08,0,0,1,6.56-11.86A29.81,29.81,0,0,1,127.83,6a27.06,27.06,0,0,1,11.94-2.7,31.32,31.32,0,0,1,11.7,2.05,25.45,25.45,0,0,1,9.12,6.35,45.19,45.19,0,0,1,7.35,10.92,2.64,2.64,0,0,0,.65.79,1.4,1.4,0,0,0,.88.28,1,1,0,0,0,1-.5A1.41,1.41,0,0,0,170.48,21.92Z"/><path class="cls-2" d="M0,37a.15.15,0,0,1,.07-.13.28.28,0,0,1,.2-.05H5.78a.53.53,0,0,0,.32-.09l.23-.16a.46.46,0,0,1,.25-.08.24.24,0,0,1,.19.07.41.41,0,0,1,.12.22l.53,2a.21.21,0,0,1,0,.19.22.22,0,0,1-.14.1.34.34,0,0,1-.2,0,.32.32,0,0,1-.16-.18A6.31,6.31,0,0,0,6.5,38a1.7,1.7,0,0,0-.38-.49,1.08,1.08,0,0,0-.44-.22,2.64,2.64,0,0,0-.6-.06H2.27v8.68a.48.48,0,0,0,.2.42,1,1,0,0,0,.61.15H5.29A1.67,1.67,0,0,0,6,46.33a1.51,1.51,0,0,0,.57-.6,7.31,7.31,0,0,0,.63-1.35.33.33,0,0,1,.11-.14.29.29,0,0,1,.16,0,.2.2,0,0,1,.16.09.25.25,0,0,1,0,.21L7.13,46.9a.51.51,0,0,1-.12.22.29.29,0,0,1-.21.08.44.44,0,0,1-.24-.07L6.33,47A.74.74,0,0,0,6,46.92H.27a.28.28,0,0,1-.2-.05A.16.16,0,0,1,0,46.74c0-.11.08-.19.24-.22l.54-.09a.48.48,0,0,0,.27-.12.32.32,0,0,0,.09-.24V37.64a.32.32,0,0,0-.09-.24.48.48,0,0,0-.27-.12l-.54-.09C.08,37.16,0,37.09,0,37Zm1.84,4.7H4.56a.83.83,0,0,0,.61-.17,1,1,0,0,0,.21-.65.43.43,0,0,1,.06-.19.22.22,0,0,1,.14-.08c.13,0,.21.05.25.21l.54,2a.3.3,0,0,1,0,.19.17.17,0,0,1-.13.1.25.25,0,0,1-.17,0,.29.29,0,0,1-.14-.13,2.28,2.28,0,0,0-.3-.51.64.64,0,0,0-.32-.23,1.1,1.1,0,0,0-.44-.07h-3Z"/><path class="cls-2" d="M19.41,44.47a2.11,2.11,0,0,1-.93,1.76,4.45,4.45,0,0,1-2.69.69H11.6a.28.28,0,0,1-.2-.05.16.16,0,0,1-.07-.13c0-.11.09-.19.25-.22l.54-.09a.49.49,0,0,0,.26-.12.3.3,0,0,0,.1-.24V37.64a.3.3,0,0,0-.1-.24.49.49,0,0,0-.26-.12l-.54-.09c-.16,0-.25-.1-.25-.22a.15.15,0,0,1,.07-.13.28.28,0,0,1,.2-.05h3.26a5.8,5.8,0,0,1,2.17.36,3,3,0,0,1,1.34,1,2.46,2.46,0,0,1,.46,1.49A2.32,2.32,0,0,1,18.44,41a2.65,2.65,0,0,1-1.15.93,4.84,4.84,0,0,1-2,.35l.49-.18a5.19,5.19,0,0,1,1.91.32,2.88,2.88,0,0,1,1.24.85A2,2,0,0,1,19.41,44.47Zm-4.12-2.12h-2V42h2a2.74,2.74,0,0,0,1.3-.28,1.94,1.94,0,0,0,.83-.8,2.45,2.45,0,0,0,.29-1.2,2.48,2.48,0,0,0-.33-1.29,2.23,2.23,0,0,0-1-.87,3.72,3.72,0,0,0-1.62-.31H13.61v8.72a.49.49,0,0,0,.21.43,1,1,0,0,0,.62.14h1.15a3.47,3.47,0,0,0,1.46-.26,1.92,1.92,0,0,0,.87-.73,2,2,0,0,0,.29-1,1.85,1.85,0,0,0-.74-1.52A3.42,3.42,0,0,0,15.29,42.35Z"/><path class="cls-2" d="M30.41,44.93l-.44.32,3.3-8.09a.73.73,0,0,1,.19-.29.61.61,0,0,1,.32-.08h1.35a.34.34,0,0,1,.22.05.16.16,0,0,1,.08.13.16.16,0,0,1-.06.13.34.34,0,0,1-.2.09l-.46.1a.64.64,0,0,0-.37.19.77.77,0,0,0-.08.48l.64,8a.5.5,0,0,0,.12.33.76.76,0,0,0,.36.15l.44.1a.41.41,0,0,1,.2.09.17.17,0,0,1,0,.12.16.16,0,0,1-.07.14.34.34,0,0,1-.22.05H32.86a.33.33,0,0,1-.21-.05.16.16,0,0,1-.07-.13.21.21,0,0,1,.05-.13.72.72,0,0,1,.21-.09l.44-.1a.84.84,0,0,0,.4-.16.38.38,0,0,0,.09-.31l-.67-8,.43,0L30.26,46a.59.59,0,0,1-.14.22.25.25,0,0,1-.16.06l-.12,0a.31.31,0,0,1-.11-.09,1.48,1.48,0,0,1-.09-.18l-3.29-7.9.41-.31-.72,8a.49.49,0,0,0,.11.41,1,1,0,0,0,.42.22l.49.12.18.08a.14.14,0,0,1,.06.12.15.15,0,0,1-.08.14.34.34,0,0,1-.22.05H24.57a.34.34,0,0,1-.22-.05.19.19,0,0,1-.07-.13.16.16,0,0,1,.07-.14.52.52,0,0,1,.2-.08L25,46.4a.72.72,0,0,0,.39-.2.66.66,0,0,0,.15-.42l.71-7.91a.5.5,0,0,0-.1-.39.68.68,0,0,0-.38-.19l-.42-.08a.6.6,0,0,1-.22-.08A.19.19,0,0,1,25,37c0-.14.11-.2.31-.2h1.32a.68.68,0,0,1,.31.06.49.49,0,0,1,.19.27Z"/><path class="cls-2" d="M39.54,37a.16.16,0,0,1,.06-.13.33.33,0,0,1,.21-.05h5.51a.55.55,0,0,0,.32-.09l.23-.16a.46.46,0,0,1,.25-.08.24.24,0,0,1,.19.07.41.41,0,0,1,.12.22l.53,2A.25.25,0,0,1,47,39a.24.24,0,0,1-.14.1.37.37,0,0,1-.21,0,.35.35,0,0,1-.15-.18A6.31,6.31,0,0,0,46,38a1.7,1.7,0,0,0-.38-.49,1.08,1.08,0,0,0-.44-.22,2.64,2.64,0,0,0-.6-.06H41.81v8.68a.5.5,0,0,0,.19.42,1,1,0,0,0,.62.15h2.21a1.7,1.7,0,0,0,.75-.15,1.51,1.51,0,0,0,.57-.6,8.92,8.92,0,0,0,.63-1.35.33.33,0,0,1,.11-.14.29.29,0,0,1,.16,0,.2.2,0,0,1,.16.09.25.25,0,0,1,0,.21l-.56,2.39a.42.42,0,0,1-.11.22.29.29,0,0,1-.21.08.44.44,0,0,1-.24-.07L45.86,47a.66.66,0,0,0-.3-.07H39.81a.33.33,0,0,1-.21-.05.18.18,0,0,1-.06-.13c0-.11.08-.19.24-.22l.54-.09a.48.48,0,0,0,.27-.12.32.32,0,0,0,.09-.24V37.64a.32.32,0,0,0-.09-.24.48.48,0,0,0-.27-.12l-.54-.09C39.62,37.16,39.54,37.09,39.54,37Zm1.84,4.7h2.71a.84.84,0,0,0,.62-.17,1,1,0,0,0,.21-.65.43.43,0,0,1,.06-.19.22.22,0,0,1,.14-.08c.13,0,.21.05.25.21l.53,2a.3.3,0,0,1,0,.19.19.19,0,0,1-.13.1.25.25,0,0,1-.17,0,.29.29,0,0,1-.14-.13,2.28,2.28,0,0,0-.3-.51.64.64,0,0,0-.32-.23,1.1,1.1,0,0,0-.44-.07h-3Z"/><path class="cls-2" d="M55.43,43.59l-.83.26-3.32-6.22a.83.83,0,0,0-.19-.26.49.49,0,0,0-.25-.12l-.25-.06a.67.67,0,0,1-.23-.09.21.21,0,0,1,0-.13.15.15,0,0,1,.07-.13.34.34,0,0,1,.22-.05h2.83a.43.43,0,0,1,.24.05.14.14,0,0,1,.08.13c0,.12-.11.19-.34.23l-.49.07a.65.65,0,0,0-.38.15c0,.07,0,.17,0,.31l2.82,5.38-.43.28L57.82,38a.59.59,0,0,0,.09-.49c0-.12-.19-.2-.41-.24l-.58-.08a.36.36,0,0,1-.19-.07.17.17,0,0,1-.06-.14.17.17,0,0,1,.07-.13.34.34,0,0,1,.22-.05h2.29a.34.34,0,0,1,.22.05.16.16,0,0,1,.08.13.17.17,0,0,1,0,.13.63.63,0,0,1-.23.1l-.11,0a.73.73,0,0,0-.27.11,1,1,0,0,0-.23.23,4,4,0,0,0-.26.43Zm-1-.32h1.13v2.8a.32.32,0,0,0,.09.24.48.48,0,0,0,.27.12l.54.09c.16,0,.24.11.24.22a.18.18,0,0,1-.06.13.3.3,0,0,1-.21.05H53.53a.28.28,0,0,1-.2-.05.16.16,0,0,1-.07-.13c0-.11.08-.19.24-.22l.54-.09a.48.48,0,0,0,.27-.12.33.33,0,0,0,.1-.24Z"/><path class="cls-2" d="M62.82,37a.15.15,0,0,1,.07-.13.28.28,0,0,1,.2-.05H68.6a.53.53,0,0,0,.32-.09l.23-.16a.46.46,0,0,1,.25-.08.26.26,0,0,1,.2.07.49.49,0,0,1,.11.22l.53,2a.21.21,0,0,1,0,.19.22.22,0,0,1-.14.1.34.34,0,0,1-.2,0,.32.32,0,0,1-.16-.18,6.31,6.31,0,0,0-.42-.86,1.7,1.7,0,0,0-.38-.49,1.08,1.08,0,0,0-.44-.22,2.64,2.64,0,0,0-.6-.06H65.09v8.68a.48.48,0,0,0,.2.42,1,1,0,0,0,.61.15h2.21a1.67,1.67,0,0,0,.75-.15,1.51,1.51,0,0,0,.57-.6,7.31,7.31,0,0,0,.63-1.35.33.33,0,0,1,.11-.14.29.29,0,0,1,.16,0,.2.2,0,0,1,.16.09.25.25,0,0,1,0,.21L70,46.9a.51.51,0,0,1-.12.22.29.29,0,0,1-.21.08.39.39,0,0,1-.23-.07L69.15,47a.74.74,0,0,0-.31-.07H63.09a.28.28,0,0,1-.2-.05.16.16,0,0,1-.07-.13c0-.11.08-.19.24-.22l.54-.09a.48.48,0,0,0,.27-.12.33.33,0,0,0,.1-.24V37.64a.33.33,0,0,0-.1-.24.48.48,0,0,0-.27-.12l-.54-.09C62.9,37.16,62.82,37.09,62.82,37Zm1.84,4.7h2.72A.85.85,0,0,0,68,41.5a1,1,0,0,0,.2-.65.43.43,0,0,1,.06-.19.22.22,0,0,1,.14-.08c.13,0,.21.05.25.21l.54,2a.3.3,0,0,1,0,.19.17.17,0,0,1-.13.1.25.25,0,0,1-.17,0,.29.29,0,0,1-.14-.13,2.28,2.28,0,0,0-.3-.51.66.66,0,0,0-.31-.23,1.18,1.18,0,0,0-.45-.07h-3Z"/><path class="cls-2" d="M82,40.2a2.59,2.59,0,0,1-1.19,2.25,3.51,3.51,0,0,1-1.33.53l-.4.06-.37.05a2.63,2.63,0,0,1-.41,0,5.29,5.29,0,0,1-.9-.07,4.72,4.72,0,0,1-.82-.18,2.53,2.53,0,0,1-.64-.3l.08-.41a2.45,2.45,0,0,0,.56.26,3.43,3.43,0,0,0,.75.17,5.52,5.52,0,0,0,.81.06,2.74,2.74,0,0,0,2-.65,2.34,2.34,0,0,0,.7-1.82,2.83,2.83,0,0,0-.41-1.53,2.72,2.72,0,0,0-1.17-1,4.12,4.12,0,0,0-1.83-.38h-1v8.85a.32.32,0,0,0,.09.24.42.42,0,0,0,.25.12l.79.09a.31.31,0,0,1,.19.08.16.16,0,0,1,0,.14q0,.18-.27.18H74.41a.3.3,0,0,1-.2-.05.18.18,0,0,1-.06-.13c0-.11.08-.19.24-.22l.55-.09a.52.52,0,0,0,.26-.12.32.32,0,0,0,.09-.24V37.64a.32.32,0,0,0-.09-.24.52.52,0,0,0-.26-.12l-.55-.09c-.16,0-.24-.1-.24-.22a.16.16,0,0,1,.06-.13.3.3,0,0,1,.2-.05h3a6.25,6.25,0,0,1,2.5.44,3.57,3.57,0,0,1,1.56,1.21A3.07,3.07,0,0,1,82,40.2Zm-3.38,2.72,1.15-.15L81.94,46a1.18,1.18,0,0,0,.31.32,1.32,1.32,0,0,0,.49.18.92.92,0,0,1,.35.1.15.15,0,0,1,.09.14.17.17,0,0,1-.08.13.34.34,0,0,1-.22.05H80.31c-.19,0-.28-.06-.28-.18a.17.17,0,0,1,0-.12.38.38,0,0,1,.17-.06l.33-.06c.13,0,.19-.07.21-.14a.43.43,0,0,0-.1-.28Z"/><path class="cls-2" d="M100.24,44.5a1.88,1.88,0,0,1-.26.91,2.87,2.87,0,0,1-.74.87,3.82,3.82,0,0,1-1.2.65,4.79,4.79,0,0,1-1.62.25,4.88,4.88,0,0,1-2.61-.68,4.54,4.54,0,0,1-1.69-1.86,6,6,0,0,1-.59-2.72,6.36,6.36,0,0,1,.34-2.14,5.32,5.32,0,0,1,1-1.7A4.54,4.54,0,0,1,94.35,37a4.49,4.49,0,0,1,1.88-.39,4,4,0,0,1,1.27.17,3.78,3.78,0,0,1,.76.33.89.89,0,0,0,.4.17.19.19,0,0,0,.21-.14c0-.09.08-.19.11-.28a.22.22,0,0,1,.22-.14.18.18,0,0,1,.13.06.38.38,0,0,1,.1.17l.78,2.42a.25.25,0,0,1,0,.21.24.24,0,0,1-.18.1.34.34,0,0,1-.18,0,.31.31,0,0,1-.12-.15,5.88,5.88,0,0,0-.92-1.39,3.06,3.06,0,0,0-1.13-.79A3.62,3.62,0,0,0,96.28,37a3.12,3.12,0,0,0-1.42.33,3.53,3.53,0,0,0-1.15.93A4.5,4.5,0,0,0,93,39.74a6.08,6.08,0,0,0-.27,1.87,6,6,0,0,0,.53,2.62,4.1,4.1,0,0,0,1.45,1.67,3.78,3.78,0,0,0,2.06.58,3.47,3.47,0,0,0,2-.53,3,3,0,0,0,1.18-1.42c0-.07.07-.13.11-.15a.17.17,0,0,1,.14,0,.11.11,0,0,1,.09,0A.12.12,0,0,1,100.24,44.5Z"/><path class="cls-2" d="M108.67,36.56a5.15,5.15,0,0,1,2,.4,4.83,4.83,0,0,1,1.59,1.12,5.07,5.07,0,0,1,1,1.7,6.43,6.43,0,0,1,0,4.27,5,5,0,0,1-1,1.67,4.81,4.81,0,0,1-1.6,1.08,5.41,5.41,0,0,1-2,.38,5.08,5.08,0,0,1-2-.4,4.69,4.69,0,0,1-1.58-1.12A5.2,5.2,0,0,1,104,44a6.18,6.18,0,0,1-.36-2.15,6,6,0,0,1,.36-2.11,4.84,4.84,0,0,1,1-1.67,4.73,4.73,0,0,1,1.58-1.08A5.27,5.27,0,0,1,108.67,36.56Zm3.86,5.95a7.19,7.19,0,0,0-.2-1.78,5.84,5.84,0,0,0-.57-1.5,5.08,5.08,0,0,0-.88-1.15,3.83,3.83,0,0,0-1.15-.74,3.57,3.57,0,0,0-1.35-.26,3.31,3.31,0,0,0-1.83.51A3.35,3.35,0,0,0,105.31,39a5,5,0,0,0-.44,2.21,7.71,7.71,0,0,0,.19,1.78,6.58,6.58,0,0,0,.57,1.51,4.49,4.49,0,0,0,.88,1.16,3.62,3.62,0,0,0,1.13.74,3.57,3.57,0,0,0,1.35.26,3.38,3.38,0,0,0,1.85-.51,3.46,3.46,0,0,0,1.25-1.44A5.2,5.2,0,0,0,112.53,42.51Z"/><path class="cls-2" d="M120.51,46.74a.16.16,0,0,1-.07.13.33.33,0,0,1-.21.05h-2.55a.36.36,0,0,1-.22-.05.16.16,0,0,1-.07-.13q0-.15.24-.21l.5-.13a1,1,0,0,0,.45-.21.5.5,0,0,0,.1-.36V38.7a1,1,0,0,0-.06-.35,1.88,1.88,0,0,0-.3-.42l-.67-.77a.77.77,0,0,1-.1-.15.16.16,0,0,1,0-.09.11.11,0,0,1,.06-.1.26.26,0,0,1,.14,0h.85a.49.49,0,0,1,.25.05.86.86,0,0,1,.23.21l6.58,8.27-.26.44V37.88a.55.55,0,0,0-.1-.37.91.91,0,0,0-.44-.19l-.51-.14q-.24-.06-.24-.21a.16.16,0,0,1,.08-.13.33.33,0,0,1,.21-.05h2.55a.31.31,0,0,1,.21.05.16.16,0,0,1,.08.13q0,.15-.24.21l-.51.14a1,1,0,0,0-.45.19.53.53,0,0,0-.1.37v7.53a.8.8,0,0,0,0,.3.71.71,0,0,0,.13.22l.44.55.11.17a.27.27,0,0,1,0,.12.14.14,0,0,1-.06.11.26.26,0,0,1-.18,0h-1q-.21,0-.21-.18a.58.58,0,0,0,0-.19,2.22,2.22,0,0,0-.23-.31l-6.07-7.67.37-.33v7.59a.5.5,0,0,0,.1.36,1,1,0,0,0,.45.21l.51.13C120.43,46.57,120.51,46.64,120.51,46.74Z"/><path class="cls-2" d="M134.73,47.16a3.43,3.43,0,0,1-1.17-.18,4,4,0,0,1-.79-.35,1.16,1.16,0,0,0-.4-.17.16.16,0,0,0-.16.1,2.5,2.5,0,0,0-.08.25,1.35,1.35,0,0,1-.08.24.18.18,0,0,1-.17.1.2.2,0,0,1-.14-.06.51.51,0,0,1-.08-.18l-.57-2.22a.22.22,0,0,1,0-.18.19.19,0,0,1,.15-.12.22.22,0,0,1,.18,0,.3.3,0,0,1,.13.16,4.1,4.1,0,0,0,.87,1.22,3.34,3.34,0,0,0,1.08.7,3.24,3.24,0,0,0,1.18.22,1.82,1.82,0,0,0,1.37-.49,1.7,1.7,0,0,0,.49-1.26,1.82,1.82,0,0,0-.2-.89,2.21,2.21,0,0,0-.79-.8,7.77,7.77,0,0,0-1.69-.78,7.15,7.15,0,0,1-1.71-.85,3,3,0,0,1-.94-1,2.92,2.92,0,0,1-.29-1.3,2.49,2.49,0,0,1,1.42-2.37,3.5,3.5,0,0,1,1.55-.33,3.34,3.34,0,0,1,1.16.17,3.57,3.57,0,0,1,.7.33.84.84,0,0,0,.4.17.16.16,0,0,0,.17-.17q0-.15.06-.33a.18.18,0,0,1,.2-.16.2.2,0,0,1,.15.06.46.46,0,0,1,.1.2l.72,2.33a.33.33,0,0,1,0,.22.26.26,0,0,1-.14.13.31.31,0,0,1-.19,0,.38.38,0,0,1-.14-.16,5.34,5.34,0,0,0-.91-1.37,3,3,0,0,0-2.22-1,2,2,0,0,0-1.46.52,1.84,1.84,0,0,0-.56,1.4,2,2,0,0,0,.23.93,2.29,2.29,0,0,0,.79.84,7,7,0,0,0,1.6.79,7.74,7.74,0,0,1,1.78.88,2.8,2.8,0,0,1,.93,1,2.59,2.59,0,0,1,.28,1.23,2.72,2.72,0,0,1-.33,1.26,2.38,2.38,0,0,1-1,.91A3.09,3.09,0,0,1,134.73,47.16Z"/><path class="cls-2" d="M149,42.74l-.24-5a.51.51,0,0,0-.14-.34.87.87,0,0,0-.41-.18l-.47-.07a.46.46,0,0,1-.23-.09.16.16,0,0,1-.06-.13.16.16,0,0,1,.08-.13.33.33,0,0,1,.21-.05h2.54a.33.33,0,0,1,.21.05.16.16,0,0,1,.06.13.18.18,0,0,1-.06.14.53.53,0,0,1-.23.08l-.42.07a.6.6,0,0,0-.43.19.51.51,0,0,0-.11.35l.25,5c0,.24,0,.47,0,.7s0,.46,0,.71a2.85,2.85,0,0,1-.36,1.55,2.73,2.73,0,0,1-1.21,1.05,4.6,4.6,0,0,1-2,.39,5.77,5.77,0,0,1-2.18-.37,2.76,2.76,0,0,1-1.31-1,2.66,2.66,0,0,1-.41-1.57c0-.14,0-.32,0-.55s0-.45,0-.69,0-.47,0-.68l.23-4.55a.33.33,0,0,0-.12-.31.79.79,0,0,0-.38-.15l-.44-.07c-.19,0-.29-.11-.29-.21a.16.16,0,0,1,.08-.14.3.3,0,0,1,.21-.05h3a.33.33,0,0,1,.21.05.16.16,0,0,1,.08.14.19.19,0,0,1-.07.13.53.53,0,0,1-.22.08l-.45.07a.67.67,0,0,0-.35.14.41.41,0,0,0-.13.31l-.23,4.52c0,.37,0,.7-.05,1s0,.57,0,.83a2.23,2.23,0,0,0,.73,1.92,3.29,3.29,0,0,0,2.16.65,3.84,3.84,0,0,0,1.56-.29,2.11,2.11,0,0,0,1-.84,2.34,2.34,0,0,0,.3-1.31c0-.33,0-.61,0-.83S149,42.93,149,42.74Z"/><path class="cls-2" d="M157.46,37.19l-.54.09a.49.49,0,0,0-.26.12.3.3,0,0,0-.1.24V46a.43.43,0,0,0,.18.38,1,1,0,0,0,.56.12h1.85a2.2,2.2,0,0,0,.73-.11,1.22,1.22,0,0,0,.5-.38,3.2,3.2,0,0,0,.4-.75l.38-1a.44.44,0,0,1,.12-.16.24.24,0,0,1,.17,0,.2.2,0,0,1,.16.09.29.29,0,0,1,0,.21L161,46.91a.45.45,0,0,1-.11.22.28.28,0,0,1-.2.08.48.48,0,0,1-.24-.07l-.23-.14a.62.62,0,0,0-.33-.08h-5.38a.28.28,0,0,1-.2-.05.16.16,0,0,1-.07-.13c0-.11.08-.19.25-.22l.54-.09a.49.49,0,0,0,.26-.12.33.33,0,0,0,.1-.24V37.64a.33.33,0,0,0-.1-.24.49.49,0,0,0-.26-.12l-.54-.09c-.17,0-.25-.1-.25-.22a.15.15,0,0,1,.07-.13.28.28,0,0,1,.2-.05h2.88a.3.3,0,0,1,.21.05.15.15,0,0,1,.07.13C157.71,37.09,157.62,37.16,157.46,37.19Z"/><path class="cls-2" d="M165.83,36.79h5.27a.57.57,0,0,0,.33-.08l.2-.16a.26.26,0,0,1,.21-.08.36.36,0,0,1,.22.06.49.49,0,0,1,.12.23l.5,2.24a.3.3,0,0,1,0,.21.17.17,0,0,1-.15.11.22.22,0,0,1-.18,0,.31.31,0,0,1-.13-.18,9.69,9.69,0,0,0-.56-1.23,1.2,1.2,0,0,0-.5-.52,1.77,1.77,0,0,0-.71-.13H169v8.83a.3.3,0,0,0,.1.24.48.48,0,0,0,.27.12l.54.09c.16,0,.24.11.24.22s-.09.18-.27.18H167a.33.33,0,0,1-.21-.05.18.18,0,0,1-.06-.13c0-.11.08-.19.24-.22l.54-.09a.48.48,0,0,0,.27-.12.32.32,0,0,0,.09-.24V37.24h-1.4a1.77,1.77,0,0,0-.71.13,1.2,1.2,0,0,0-.5.52,9.69,9.69,0,0,0-.56,1.23.31.31,0,0,1-.13.18.25.25,0,0,1-.19,0,.19.19,0,0,1-.15-.11.37.37,0,0,1,0-.21l.5-2.24a.42.42,0,0,1,.13-.23.33.33,0,0,1,.21-.06.29.29,0,0,1,.22.08l.2.16A.56.56,0,0,0,165.83,36.79Z"/><path class="cls-2" d="M178.53,46.07a.32.32,0,0,0,.09.24.49.49,0,0,0,.26.12l.54.09c.17,0,.25.11.25.22a.18.18,0,0,1-.06.13.33.33,0,0,1-.21.05h-2.89a.28.28,0,0,1-.2-.05.18.18,0,0,1-.06-.13c0-.11.08-.19.24-.22l.54-.09a.52.52,0,0,0,.27-.12.32.32,0,0,0,.09-.24V37.64a.32.32,0,0,0-.09-.24.52.52,0,0,0-.27-.12l-.54-.09c-.16,0-.24-.1-.24-.22a.16.16,0,0,1,.06-.13.28.28,0,0,1,.2-.05h2.89a.33.33,0,0,1,.21.05.16.16,0,0,1,.06.13c0,.12-.08.19-.25.22l-.54.09a.49.49,0,0,0-.26.12.32.32,0,0,0-.09.24Z"/><path class="cls-2" d="M186.62,46.74a.17.17,0,0,1-.08.13.31.31,0,0,1-.21.05h-2.55a.36.36,0,0,1-.22-.05.16.16,0,0,1-.07-.13q0-.15.24-.21l.5-.13a1,1,0,0,0,.45-.21.5.5,0,0,0,.1-.36V38.7a1,1,0,0,0-.06-.35,1.88,1.88,0,0,0-.3-.42l-.66-.77a.55.55,0,0,1-.11-.15.16.16,0,0,1,0-.09.11.11,0,0,1,.06-.1.29.29,0,0,1,.14,0h.85a.49.49,0,0,1,.25.05.86.86,0,0,1,.23.21l6.59,8.27-.27.44V37.88a.55.55,0,0,0-.1-.37.86.86,0,0,0-.44-.19l-.51-.14c-.16,0-.23-.11-.23-.21a.15.15,0,0,1,.07-.13.34.34,0,0,1,.22-.05H193a.31.31,0,0,1,.21.05.16.16,0,0,1,.08.13c0,.1-.08.17-.23.21l-.52.14a.91.91,0,0,0-.44.19.53.53,0,0,0-.11.37v7.53a.8.8,0,0,0,0,.3.71.71,0,0,0,.13.22l.44.55.11.17a.27.27,0,0,1,0,.12.14.14,0,0,1-.06.11.26.26,0,0,1-.18,0h-1q-.21,0-.21-.18a.58.58,0,0,0,0-.19,2.89,2.89,0,0,0-.22-.31L185,38.57l.37-.33v7.59a.5.5,0,0,0,.1.36,1,1,0,0,0,.45.21l.51.13Q186.62,46.59,186.62,46.74Z"/><path class="cls-2" d="M205.47,46.81a.55.55,0,0,1-.06.29.26.26,0,0,1-.2.08.28.28,0,0,1-.22-.11,1.36,1.36,0,0,1-.13-.24,1.86,1.86,0,0,0-.1-.25.17.17,0,0,0-.16-.1.78.78,0,0,0-.34.1c-.14.08-.31.16-.51.25a4.61,4.61,0,0,1-1.82.35,5.11,5.11,0,0,1-2.08-.4,4.45,4.45,0,0,1-1.58-1.1,4.85,4.85,0,0,1-1-1.68,6,6,0,0,1-.35-2.12,6.09,6.09,0,0,1,.36-2.12,5,5,0,0,1,1-1.68A4.63,4.63,0,0,1,199.85,37a4.77,4.77,0,0,1,1.94-.39,4.37,4.37,0,0,1,2.17.5.91.91,0,0,0,.41.17.2.2,0,0,0,.22-.14l.1-.28a.22.22,0,0,1,.22-.14.18.18,0,0,1,.14.06.38.38,0,0,1,.1.17l.77,2.42a.22.22,0,0,1,0,.21.2.2,0,0,1-.17.1.34.34,0,0,1-.18,0,.32.32,0,0,1-.13-.15,5.1,5.1,0,0,0-.94-1.4,3.27,3.27,0,0,0-1.18-.79,4.28,4.28,0,0,0-1.47-.24,3.38,3.38,0,0,0-1.92.57,4,4,0,0,0-1.34,1.61,5.35,5.35,0,0,0-.5,2.41,6,6,0,0,0,.55,2.69A4.1,4.1,0,0,0,200.11,46a3.79,3.79,0,0,0,2.1.6,5.05,5.05,0,0,0,.91-.08,2.43,2.43,0,0,0,.69-.23,1.18,1.18,0,0,0,.44-.38.89.89,0,0,0,.15-.5V43.59a.36.36,0,0,0-.1-.28.71.71,0,0,0-.38-.15l-.58-.1a.37.37,0,0,1-.21-.07.16.16,0,0,1-.07-.14.17.17,0,0,1,.07-.13.42.42,0,0,1,.22,0h3a.42.42,0,0,1,.22,0,.15.15,0,0,1,.07.13.17.17,0,0,1-.05.13.54.54,0,0,1-.21.08l-.39.09a.91.91,0,0,0-.38.16.35.35,0,0,0-.11.28Z"/><path class="cls-2" d="M279.67,12.57a.81.81,0,0,1,.28-.66,1.44,1.44,0,0,1,.89-.22H299a2.74,2.74,0,0,0,1.26-.26l.92-.52a2,2,0,0,1,1-.25A1.19,1.19,0,0,1,303,11a2.46,2.46,0,0,1,.5,1l1.84,6.69a1,1,0,0,1,0,.81.87.87,0,0,1-.6.46,1.22,1.22,0,0,1-.89-.05,1.58,1.58,0,0,1-.66-.69,25,25,0,0,0-1.5-2.93,6.7,6.7,0,0,0-1.41-1.68,3.94,3.94,0,0,0-1.59-.78,8.81,8.81,0,0,0-2-.2h-7.74V41a1.93,1.93,0,0,0,.66,1.59,3.11,3.11,0,0,0,2,.54h5.76a6.21,6.21,0,0,0,2.64-.52,5.52,5.52,0,0,0,2.08-2,27.18,27.18,0,0,0,2.21-4.45,1.33,1.33,0,0,1,.53-.62,1.19,1.19,0,0,1,.73-.11.89.89,0,0,1,.69.41,1.16,1.16,0,0,1,.08.92l-1.94,7.81a2.34,2.34,0,0,1-.52,1.05,1.3,1.3,0,0,1-1,.34,2,2,0,0,1-.93-.22l-.92-.44a2.9,2.9,0,0,0-1.21-.23h-19a1.37,1.37,0,0,1-.89-.24.77.77,0,0,1-.28-.64c0-.48.3-.8.9-1l1.56-.29a1.75,1.75,0,0,0,.89-.46,1.18,1.18,0,0,0,.3-.83V15.13a1.18,1.18,0,0,0-.3-.83,1.75,1.75,0,0,0-.89-.46l-1.56-.29C280,13.38,279.67,13.05,279.67,12.57Zm7.11,14.9h8.29a2.9,2.9,0,0,0,2-.56,3.71,3.71,0,0,0,.8-2.18,1.45,1.45,0,0,1,.33-.75.91.91,0,0,1,.6-.3c.53-.07.87.22,1,.86l1.77,6.83a1.26,1.26,0,0,1,0,.82.89.89,0,0,1-.55.44,1.16,1.16,0,0,1-.74,0,1.22,1.22,0,0,1-.57-.52,9.21,9.21,0,0,0-1.11-1.67,2.87,2.87,0,0,0-1.15-.79,5.1,5.1,0,0,0-1.59-.21h-9.15Z"/><path class="cls-2" d="M339,37.05A6.94,6.94,0,0,1,336,42.87c-2,1.5-5.05,2.25-9.05,2.25H311.74a1.34,1.34,0,0,1-.88-.24.78.78,0,0,1-.29-.64c0-.48.3-.8.91-1l1.57-.29a1.79,1.79,0,0,0,.89-.46,1.18,1.18,0,0,0,.31-.83V15.13a1.18,1.18,0,0,0-.31-.83,1.79,1.79,0,0,0-.89-.46l-1.57-.29c-.61-.17-.91-.5-.91-1a.82.82,0,0,1,.29-.66,1.41,1.41,0,0,1,.88-.22h11.85a20,20,0,0,1,7.35,1.2,10.27,10.27,0,0,1,4.61,3.35,8.15,8.15,0,0,1,1.58,5,7.54,7.54,0,0,1-1.3,4.3,8.79,8.79,0,0,1-3.91,3,16.48,16.48,0,0,1-6.52,1.12l1.48-.67a18.19,18.19,0,0,1,6.46,1,9.8,9.8,0,0,1,4.22,2.86A6.41,6.41,0,0,1,339,37.05Zm-14.31-6.71h-6.54V28.69h6.18a8.39,8.39,0,0,0,4-.86,5.71,5.71,0,0,0,2.48-2.48,8.19,8.19,0,0,0,.85-3.87,8.4,8.4,0,0,0-1-4.18,7,7,0,0,0-3-2.79,10.74,10.74,0,0,0-4.9-1h-2.93V41.18a1.88,1.88,0,0,0,.69,1.6,3.5,3.5,0,0,0,2.12.53h3.16a9.74,9.74,0,0,0,4.18-.8,5.66,5.66,0,0,0,2.52-2.25,6.49,6.49,0,0,0,.84-3.33,5.91,5.91,0,0,0-2.17-4.77Q329,30.35,324.73,30.34Z"/><path class="cls-2" d="M362.94,37.34l-2,.93,9.94-24.86a2.94,2.94,0,0,1,.87-1.34,2.37,2.37,0,0,1,1.42-.38h5.66a1.56,1.56,0,0,1,.93.22.78.78,0,0,1,.31.66.86.86,0,0,1-.21.58,1.59,1.59,0,0,1-.74.38l-1.36.33a1.87,1.87,0,0,0-1.17.66,2.35,2.35,0,0,0-.24,1.49l2,25.29a1.69,1.69,0,0,0,.37,1.12,2.21,2.21,0,0,0,1.11.53l1.31.33a1.32,1.32,0,0,1,.69.36.81.81,0,0,1,.22.58.82.82,0,0,1-.31.64,1.39,1.39,0,0,1-.93.26H370.27a1.52,1.52,0,0,1-.93-.24.77.77,0,0,1-.31-.64.8.8,0,0,1,.22-.57,1.54,1.54,0,0,1,.74-.39L371.3,43a2.3,2.3,0,0,0,1.24-.57,1.4,1.4,0,0,0,.27-1.05L370.73,15.6l1.84-.09L362.06,42a2.4,2.4,0,0,1-.67,1.14,1.32,1.32,0,0,1-.81.27,1.88,1.88,0,0,1-.65-.11,1.18,1.18,0,0,1-.52-.42,4.27,4.27,0,0,1-.5-.93L348.3,16.13l1.79-.88L347.87,40.7a1.74,1.74,0,0,0,.38,1.45,3.88,3.88,0,0,0,1.41.8l1.39.41a1.88,1.88,0,0,1,.58.33.63.63,0,0,1,.23.53.77.77,0,0,1-.31.65,1.45,1.45,0,0,1-.93.25h-7.79a1.52,1.52,0,0,1-.93-.24.74.74,0,0,1-.31-.64.72.72,0,0,1,.28-.62,2.18,2.18,0,0,1,.75-.36l1.15-.36a2.61,2.61,0,0,0,1.3-.74,2.57,2.57,0,0,0,.53-1.48l2.15-24.62a2.12,2.12,0,0,0-.26-1.47,2,2,0,0,0-1.22-.73L345,13.6a1.76,1.76,0,0,1-.79-.38.84.84,0,0,1-.24-.62c0-.61.42-.91,1.27-.91h5.56a2.6,2.6,0,0,1,1.37.32,2.47,2.47,0,0,1,.88,1.28Z"/><path class="cls-2" d="M386.08,12.57a.82.82,0,0,1,.29-.66,1.43,1.43,0,0,1,.88-.22h18.13a2.67,2.67,0,0,0,1.25-.26c.33-.18.64-.35.92-.52a2,2,0,0,1,1-.25,1.21,1.21,0,0,1,.89.32,2.58,2.58,0,0,1,.5,1l1.84,6.69a1,1,0,0,1,0,.81.87.87,0,0,1-.6.46,1.25,1.25,0,0,1-.9-.05,1.51,1.51,0,0,1-.65-.69,24.88,24.88,0,0,0-1.51-2.93,6.49,6.49,0,0,0-1.41-1.68,3.84,3.84,0,0,0-1.58-.78,9,9,0,0,0-2.05-.2h-7.73V41a1.93,1.93,0,0,0,.65,1.59,3.14,3.14,0,0,0,2,.54h5.76a6.21,6.21,0,0,0,2.64-.52,5.5,5.5,0,0,0,2.07-2,26.39,26.39,0,0,0,2.21-4.45,1.34,1.34,0,0,1,.54-.62,1.18,1.18,0,0,1,.73-.11.89.89,0,0,1,.69.41,1.17,1.17,0,0,1,.07.92l-1.93,7.81a2.34,2.34,0,0,1-.53,1.05,1.26,1.26,0,0,1-.95.34,1.93,1.93,0,0,1-.93-.22l-.92-.44a2.9,2.9,0,0,0-1.21-.23h-19a1.36,1.36,0,0,1-.88-.24.78.78,0,0,1-.29-.64c0-.48.31-.8.91-1l1.55-.29a1.74,1.74,0,0,0,.9-.46,1.18,1.18,0,0,0,.3-.83V15.13a1.18,1.18,0,0,0-.3-.83,1.74,1.74,0,0,0-.9-.46L387,13.55C386.39,13.38,386.08,13.05,386.08,12.57Zm7.12,14.9h8.29a2.9,2.9,0,0,0,2-.56,3.71,3.71,0,0,0,.8-2.18,1.45,1.45,0,0,1,.32-.75.94.94,0,0,1,.61-.3c.53-.07.87.22,1,.86l1.76,6.83a1.14,1.14,0,0,1,0,.82.85.85,0,0,1-.54.44,1.15,1.15,0,0,1-.74,0,1.2,1.2,0,0,1-.58-.52,9.21,9.21,0,0,0-1.11-1.67,2.77,2.77,0,0,0-1.14-.79,5.19,5.19,0,0,0-1.59-.21H393.2Z"/><path class="cls-2" d="M433.25,34.3l-4.25.94L418.42,15.18a3.55,3.55,0,0,0-.67-1,2.18,2.18,0,0,0-.86-.45l-.76-.22a1.71,1.71,0,0,1-.76-.39.85.85,0,0,1,.1-1.2,1.52,1.52,0,0,1,.92-.22h10.39a1.82,1.82,0,0,1,1,.22.77.77,0,0,1,.35.66c0,.5-.39.82-1.17,1l-1.37.24c-.63.13-1,.31-1.17.56s-.08.63.17,1.14l8.55,16.93-2,1.12L440,16.37a2.15,2.15,0,0,0,.32-1.68c-.16-.44-.63-.75-1.39-.92l-1.55-.27a1.56,1.56,0,0,1-.64-.34.89.89,0,0,1,.08-1.25,1.52,1.52,0,0,1,.92-.22h7.38a1.6,1.6,0,0,1,.93.22.86.86,0,0,1,.12,1.2,1.86,1.86,0,0,1-.77.39l-.36.15a2.83,2.83,0,0,0-.87.43,3.81,3.81,0,0,0-.79.84,14.28,14.28,0,0,0-.92,1.62ZM428.16,33h5.59v8.69a1.18,1.18,0,0,0,.31.83A1.79,1.79,0,0,0,435,43l1.55.29c.6.18.91.5.91,1a.8.8,0,0,1-.28.64,1.33,1.33,0,0,1-.89.24H425.68a1.34,1.34,0,0,1-.88-.24.78.78,0,0,1-.29-.64c0-.48.3-.8.91-1L427,43a1.67,1.67,0,0,0,.89-.46,1.18,1.18,0,0,0,.3-.83Z"/><path class="cls-2" d="M449.66,12.57a.81.81,0,0,1,.28-.66,1.44,1.44,0,0,1,.89-.22H469a2.74,2.74,0,0,0,1.26-.26l.92-.52a2,2,0,0,1,1-.25A1.19,1.19,0,0,1,473,11a2.46,2.46,0,0,1,.5,1l1.84,6.69a1,1,0,0,1,0,.81.87.87,0,0,1-.6.46,1.22,1.22,0,0,1-.89-.05,1.48,1.48,0,0,1-.66-.69,25,25,0,0,0-1.5-2.93,6.91,6.91,0,0,0-1.41-1.68,3.94,3.94,0,0,0-1.59-.78,8.81,8.81,0,0,0-2-.2H458.9V41a1.93,1.93,0,0,0,.66,1.59,3.11,3.11,0,0,0,2,.54h5.76a6.21,6.21,0,0,0,2.64-.52,5.59,5.59,0,0,0,2.08-2,26.49,26.49,0,0,0,2.2-4.45,1.4,1.4,0,0,1,.54-.62,1.19,1.19,0,0,1,.73-.11.89.89,0,0,1,.69.41,1.13,1.13,0,0,1,.07.92l-1.93,7.81a2.24,2.24,0,0,1-.53,1.05,1.26,1.26,0,0,1-.95.34,1.93,1.93,0,0,1-.93-.22l-.92-.44a2.9,2.9,0,0,0-1.21-.23h-19a1.37,1.37,0,0,1-.89-.24.77.77,0,0,1-.28-.64c0-.48.3-.8.9-1l1.56-.29a1.75,1.75,0,0,0,.89-.46,1.18,1.18,0,0,0,.3-.83V15.13a1.18,1.18,0,0,0-.3-.83,1.75,1.75,0,0,0-.89-.46l-1.56-.29C450,13.38,449.66,13.05,449.66,12.57Zm7.11,14.9h8.29a2.9,2.9,0,0,0,2-.56,3.71,3.71,0,0,0,.8-2.18,1.54,1.54,0,0,1,.32-.75,1,1,0,0,1,.61-.3c.53-.07.87.22,1,.86l1.77,6.83a1.26,1.26,0,0,1,0,.82.89.89,0,0,1-.55.44,1.16,1.16,0,0,1-.74,0,1.2,1.2,0,0,1-.58-.52,8.27,8.27,0,0,0-1.11-1.67,2.77,2.77,0,0,0-1.14-.79,5.1,5.1,0,0,0-1.59-.21h-9.15Z"/><path class="cls-2" d="M508.57,23.06a8.55,8.55,0,0,1-1,4.21,8.78,8.78,0,0,1-2.91,3.13,11.85,11.85,0,0,1-4.44,1.73l-1.55.3c-.48.1-1,.19-1.46.26a11.38,11.38,0,0,1-1.6.11,19.73,19.73,0,0,1-2.91-.21,16.42,16.42,0,0,1-2.59-.61,8.63,8.63,0,0,1-2-.95l.19-1.79a7.07,7.07,0,0,0,1.72.84,12.88,12.88,0,0,0,2.24.55,17.07,17.07,0,0,0,2.49.19,8.34,8.34,0,0,0,5.91-2,7.48,7.48,0,0,0,2.14-5.74,9.59,9.59,0,0,0-1.26-4.93,8.82,8.82,0,0,0-3.56-3.39,11.39,11.39,0,0,0-5.45-1.23H489.8V41.68a1.21,1.21,0,0,0,.28.83,1.49,1.49,0,0,0,.8.46l2.12.29a1.58,1.58,0,0,1,.72.39,1,1,0,0,1,.19.59c0,.59-.39.88-1.17.88h-11a1.4,1.4,0,0,1-.91-.24.77.77,0,0,1-.28-.64c0-.48.31-.8.93-1L483,43a1.76,1.76,0,0,0,.88-.46,1.14,1.14,0,0,0,.31-.83V15.13a1.14,1.14,0,0,0-.31-.83,1.76,1.76,0,0,0-.88-.46l-1.55-.29c-.62-.17-.93-.5-.93-1a.81.81,0,0,1,.28-.66,1.47,1.47,0,0,1,.91-.22h10.91a22.7,22.7,0,0,1,8.67,1.47,12.18,12.18,0,0,1,5.41,4A9.76,9.76,0,0,1,508.57,23.06ZM496.08,32l5.54-.66,6.62,10.26a3.4,3.4,0,0,0,2.39,1.68,2.69,2.69,0,0,1,1.09.41.75.75,0,0,1,.27.59.77.77,0,0,1-.31.64,1.52,1.52,0,0,1-.93.24h-9.32c-.8,0-1.19-.29-1.19-.88a.6.6,0,0,1,.18-.44,1.33,1.33,0,0,1,.56-.3l.88-.19c.37-.11.57-.28.62-.5a1.41,1.41,0,0,0-.28-.93Z"/><path class="cls-2" d="M554.45,36.74a6.75,6.75,0,0,1-.88,3.2,10.34,10.34,0,0,1-2.57,3,13.52,13.52,0,0,1-4.09,2.21,16.79,16.79,0,0,1-5.48.83,16.6,16.6,0,0,1-8.77-2.23A15,15,0,0,1,527,37.6a19.5,19.5,0,0,1-2-9,20.37,20.37,0,0,1,1.18-7.07,17.42,17.42,0,0,1,3.32-5.62,14.81,14.81,0,0,1,11.31-5,13.35,13.35,0,0,1,4.06.51,13.64,13.64,0,0,1,2.42,1,3,3,0,0,0,1.33.51.88.88,0,0,0,.82-.42l.5-.86a.89.89,0,0,1,.83-.44.85.85,0,0,1,.57.22,1.73,1.73,0,0,1,.41.74l2.55,8.1a1,1,0,0,1-.08.86,1,1,0,0,1-.71.43,1.22,1.22,0,0,1-1.38-.77,17.79,17.79,0,0,0-3-4.56,9.9,9.9,0,0,0-3.55-2.5,11.44,11.44,0,0,0-4.25-.77,9.28,9.28,0,0,0-4.28,1,10.13,10.13,0,0,0-3.43,2.92,14,14,0,0,0-2.26,4.55,20.44,20.44,0,0,0-.8,5.9,19.4,19.4,0,0,0,1.63,8.35A12.23,12.23,0,0,0,536.65,41,11.41,11.41,0,0,0,543,42.81a10.84,10.84,0,0,0,6-1.61,10.16,10.16,0,0,0,3.79-4.48,1.34,1.34,0,0,1,.48-.62.76.76,0,0,1,.59-.12.7.7,0,0,1,.44.23A.8.8,0,0,1,554.45,36.74Z"/><path class="cls-2" d="M575.06,10.9a17.64,17.64,0,0,1,6.9,1.3,15.65,15.65,0,0,1,5.35,3.68,16.27,16.27,0,0,1,3.45,5.62A20.27,20.27,0,0,1,592,28.64a19.25,19.25,0,0,1-1.21,7,16,16,0,0,1-3.43,5.51A15.44,15.44,0,0,1,582,44.71a18,18,0,0,1-6.9,1.27,17.32,17.32,0,0,1-6.83-1.3A15.39,15.39,0,0,1,563,41a16.48,16.48,0,0,1-3.45-5.62,20.27,20.27,0,0,1-1.22-7.14,19.49,19.49,0,0,1,1.21-7,16.29,16.29,0,0,1,3.43-5.5,15.38,15.38,0,0,1,5.3-3.6A17.68,17.68,0,0,1,575.06,10.9Zm11.18,20.8a27.27,27.27,0,0,0-.64-5.95,23.72,23.72,0,0,0-1.76-5.14,17.17,17.17,0,0,0-2.69-4A11.71,11.71,0,0,0,577.73,14a8.68,8.68,0,0,0-3.94-.93,9,9,0,0,0-5.07,1.45,9.54,9.54,0,0,0-3.4,4.18,15.78,15.78,0,0,0-1.22,6.52,27.33,27.33,0,0,0,.62,6,23.36,23.36,0,0,0,1.75,5.16,17.27,17.27,0,0,0,2.68,4,11.5,11.5,0,0,0,3.4,2.63,8.78,8.78,0,0,0,3.92.92,9,9,0,0,0,5.13-1.47A9.6,9.6,0,0,0,585,38.25,16,16,0,0,0,586.24,31.7Z"/><path class="cls-2" d="M607.11,44.24a.77.77,0,0,1-.31.64,1.52,1.52,0,0,1-.93.24h-8.15a1.52,1.52,0,0,1-.93-.24.74.74,0,0,1-.31-.64c0-.43.31-.76.93-1l1.41-.36a3.37,3.37,0,0,0,1.47-.79,2.11,2.11,0,0,0,.37-1.41V18.59a3.17,3.17,0,0,0-.19-1.18,5.4,5.4,0,0,0-1-1.37l-2.1-2.54a6.43,6.43,0,0,1-.43-.64.92.92,0,0,1-.12-.45.61.61,0,0,1,.27-.54,1.12,1.12,0,0,1,.66-.18h4.11a2.29,2.29,0,0,1,1,.21,2.83,2.83,0,0,1,.87.82l20.13,25.91-1,2.12V16.11a2.27,2.27,0,0,0-.34-1.4,3.22,3.22,0,0,0-1.5-.8l-1.38-.36c-.62-.24-.93-.56-.93-1a.78.78,0,0,1,.31-.66,1.56,1.56,0,0,1,.93-.22h8.14a1.52,1.52,0,0,1,.92.22.8.8,0,0,1,.3.66c0,.43-.3.76-.91,1l-1.41.36a3.09,3.09,0,0,0-1.47.78,2.22,2.22,0,0,0-.37,1.42V39.18a4.25,4.25,0,0,0,.14,1.17,2.69,2.69,0,0,0,.44.88l1.48,1.86a3.18,3.18,0,0,1,.45.73,1.32,1.32,0,0,1,.1.51.72.72,0,0,1-.26.58,1.22,1.22,0,0,1-.77.21H622c-.63,0-1-.25-1-.76a1.84,1.84,0,0,0-.13-.69,7,7,0,0,0-.8-1.15L601.19,18.11l1.74-1.36v24a2.16,2.16,0,0,0,.36,1.39,3.36,3.36,0,0,0,1.5.81l1.39.36C606.8,43.48,607.11,43.81,607.11,44.24Z"/><path class="cls-2" d="M646.94,45.89a11,11,0,0,1-3.61-.53,15.13,15.13,0,0,1-2.46-1,3.53,3.53,0,0,0-1.33-.51.77.77,0,0,0-.65.31,4.54,4.54,0,0,0-.43.73,3.89,3.89,0,0,1-.42.73.8.8,0,0,1-.65.31.93.93,0,0,1-.66-.25,1.71,1.71,0,0,1-.37-.8l-1.76-7.53a1,1,0,0,1,.09-.75,1.24,1.24,0,0,1,.62-.49,1.11,1.11,0,0,1,.83,0,1.54,1.54,0,0,1,.61.7,14.87,14.87,0,0,0,2.85,4.11A10.08,10.08,0,0,0,643,43.18a9.86,9.86,0,0,0,3.65.7,5.78,5.78,0,0,0,4.18-1.44,5.14,5.14,0,0,0,1.53-3.79,5.57,5.57,0,0,0-.67-2.7,6.81,6.81,0,0,0-2.52-2.4,27,27,0,0,0-5.43-2.37A22.53,22.53,0,0,1,638,28.43a9.47,9.47,0,0,1-3.13-3.51,10.17,10.17,0,0,1-1-4.54,9.1,9.1,0,0,1,1.31-4.91,9,9,0,0,1,3.67-3.26A12.15,12.15,0,0,1,644.34,11a11.17,11.17,0,0,1,3.68.51,13.28,13.28,0,0,1,2.3,1,3.14,3.14,0,0,0,1.42.5.7.7,0,0,0,.71-.5c.12-.34.25-.67.39-1a.83.83,0,0,1,.84-.51.94.94,0,0,1,.68.27,2.24,2.24,0,0,1,.46,1L657.14,20a1.24,1.24,0,0,1,0,.91,1.12,1.12,0,0,1-.62.57,1.09,1.09,0,0,1-.84,0,1.37,1.37,0,0,1-.6-.65A17.28,17.28,0,0,0,652,16.21a10.38,10.38,0,0,0-3.47-2.42,9.84,9.84,0,0,0-3.73-.74,6,6,0,0,0-4.35,1.56,5.42,5.42,0,0,0-1.64,4.12,5.88,5.88,0,0,0,.69,2.79A7.45,7.45,0,0,0,642,24a25,25,0,0,0,5.21,2.49,26.49,26.49,0,0,1,5.87,2.88,9.4,9.4,0,0,1,3.11,3.36,9.08,9.08,0,0,1,.9,4.24,8.56,8.56,0,0,1-1.19,4.46,8.67,8.67,0,0,1-3.45,3.22A11.62,11.62,0,0,1,646.94,45.89Z"/><path class="cls-2" d="M687.73,31.06l-.83-15.22a2.19,2.19,0,0,0-.48-1.37,2.43,2.43,0,0,0-1.39-.68l-1.31-.21a2.15,2.15,0,0,1-.91-.41.81.81,0,0,1-.24-.6.78.78,0,0,1,.31-.64,1.39,1.39,0,0,1,.86-.24h8.51a1.37,1.37,0,0,1,.87.24.77.77,0,0,1,.3.64.84.84,0,0,1-.25.62,2,2,0,0,1-.9.39l-1.22.19a2.42,2.42,0,0,0-1.51.78,2.13,2.13,0,0,0-.35,1.41l.86,15.15c.05.79.09,1.57.13,2.33s.08,1.57.11,2.39A9.38,9.38,0,0,1,689,41.05a9.08,9.08,0,0,1-4.13,3.58A16.21,16.21,0,0,1,678,45.94a19.13,19.13,0,0,1-7.37-1.25,9.53,9.53,0,0,1-4.46-3.49,9.08,9.08,0,0,1-1.4-5.3c0-.42,0-1,.07-1.62s.07-1.36.12-2.14.08-1.56.12-2.37l.78-14.45a1.21,1.21,0,0,0-.34-1,2.51,2.51,0,0,0-1.23-.5l-1.32-.21c-.78-.16-1.17-.5-1.17-1a.78.78,0,0,1,.31-.64,1.45,1.45,0,0,1,.89-.24h11.29a1.38,1.38,0,0,1,.88.24.87.87,0,0,1,0,1.26,1.73,1.73,0,0,1-.89.36l-1.34.24a2.13,2.13,0,0,0-1.11.48,1.5,1.5,0,0,0-.39,1l-.79,14.37c-.07,1.16-.11,2.22-.15,3.15s0,1.81-.07,2.61q-.12,4.13,2.21,6.18a9.4,9.4,0,0,0,6.44,2.06,11.23,11.23,0,0,0,4.82-1A6.87,6.87,0,0,0,687,40a7.36,7.36,0,0,0,1-4.19c0-1.08-.07-2-.1-2.72S687.78,31.69,687.73,31.06Z"/><path class="cls-2" d="M709.9,13.55l-1.58.29a1.78,1.78,0,0,0-.86.46,1.14,1.14,0,0,0-.31.83V41.47a1.47,1.47,0,0,0,.55,1.3,3,3,0,0,0,1.74.4h5a6.79,6.79,0,0,0,2.35-.36,4,4,0,0,0,1.7-1.27A11.4,11.4,0,0,0,719.93,39l1.33-3.2a1.5,1.5,0,0,1,.56-.69,1.19,1.19,0,0,1,.78-.08.93.93,0,0,1,.67.43,1.17,1.17,0,0,1,.05.88l-2,8.32a2.45,2.45,0,0,1-.53,1.05,1.26,1.26,0,0,1-.93.33,1.71,1.71,0,0,1-.89-.23c-.28-.15-.59-.3-.92-.45a3.13,3.13,0,0,0-1.27-.23H699.08a1.4,1.4,0,0,1-.91-.24.78.78,0,0,1-.29-.64c0-.48.31-.8.93-1l1.56-.29a1.8,1.8,0,0,0,.88-.46,1.14,1.14,0,0,0,.31-.83V15.13a1.14,1.14,0,0,0-.31-.83,1.8,1.8,0,0,0-.88-.46l-1.56-.29c-.62-.17-.93-.5-.93-1a.82.82,0,0,1,.29-.66,1.47,1.47,0,0,1,.91-.22h10.55a1.43,1.43,0,0,1,.9.22.84.84,0,0,1,.27.66C710.8,13.05,710.5,13.38,709.9,13.55Z"/><path class="cls-2" d="M730.51,11.69h17a2.65,2.65,0,0,0,1.27-.25c.32-.17.59-.33.84-.49a1.53,1.53,0,0,1,.85-.24,1.41,1.41,0,0,1,1,.31,2,2,0,0,1,.53,1l1.63,7.52a1.41,1.41,0,0,1-.07.93.93.93,0,0,1-.67.46,1.13,1.13,0,0,1-.8-.1,1.52,1.52,0,0,1-.59-.69,33.48,33.48,0,0,0-1.94-4.12,4.8,4.8,0,0,0-1.72-1.85,4.76,4.76,0,0,0-2.26-.48h-3.77v28a1.14,1.14,0,0,0,.31.83A1.76,1.76,0,0,0,743,43l1.55.29c.61.18.91.5.91,1s-.39.88-1.17.88H733.75a1.36,1.36,0,0,1-.88-.24.78.78,0,0,1-.29-.64c0-.48.31-.8.91-1L735,43a1.74,1.74,0,0,0,.9-.46,1.18,1.18,0,0,0,.3-.83v-28h-3.78a4,4,0,0,0-4,2.33,34.27,34.27,0,0,0-2,4.12,1.34,1.34,0,0,1-.57.69,1.17,1.17,0,0,1-.81.1.89.89,0,0,1-.66-.46,1.47,1.47,0,0,1-.08-.93L726,12.05a2.12,2.12,0,0,1,.54-1,1.37,1.37,0,0,1,1-.31,1.48,1.48,0,0,1,.86.24c.24.16.52.32.84.49A2.71,2.71,0,0,0,730.51,11.69Z"/><path class="cls-2" d="M767.14,41.68a1.14,1.14,0,0,0,.31.83,1.78,1.78,0,0,0,.86.46l1.58.29c.6.18.9.5.9,1a.8.8,0,0,1-.27.64,1.35,1.35,0,0,1-.9.24H759.07a1.4,1.4,0,0,1-.91-.24.78.78,0,0,1-.29-.64c0-.48.31-.8.93-1l1.56-.29a1.8,1.8,0,0,0,.88-.46,1.14,1.14,0,0,0,.31-.83V15.13a1.14,1.14,0,0,0-.31-.83,1.8,1.8,0,0,0-.88-.46l-1.56-.29c-.62-.17-.93-.5-.93-1a.82.82,0,0,1,.29-.66,1.47,1.47,0,0,1,.91-.22h10.55a1.42,1.42,0,0,1,.9.22.84.84,0,0,1,.27.66c0,.48-.3.81-.9,1l-1.58.29a1.78,1.78,0,0,0-.86.46,1.14,1.14,0,0,0-.31.83Z"/><path class="cls-2" d="M786.44,44.24a.75.75,0,0,1-.32.64,1.48,1.48,0,0,1-.93.24h-8.14a1.52,1.52,0,0,1-.93-.24.74.74,0,0,1-.31-.64c0-.43.31-.76.93-1l1.41-.36a3.37,3.37,0,0,0,1.47-.79A2.17,2.17,0,0,0,780,40.7V18.59a3.39,3.39,0,0,0-.19-1.18,5.4,5.4,0,0,0-1-1.37l-2.1-2.54a6.43,6.43,0,0,1-.43-.64.92.92,0,0,1-.12-.45.62.62,0,0,1,.26-.54,1.17,1.17,0,0,1,.67-.18h4.11a2.32,2.32,0,0,1,1,.21,2.83,2.83,0,0,1,.87.82l20.13,25.91-1,2.12V16.11a2.26,2.26,0,0,0-.35-1.4,3.17,3.17,0,0,0-1.49-.8l-1.38-.36c-.63-.24-.94-.56-.94-1a.81.81,0,0,1,.31-.66,1.61,1.61,0,0,1,.94-.22h8.14a1.54,1.54,0,0,1,.92.22.8.8,0,0,1,.3.66c0,.43-.31.76-.91,1l-1.41.36a3.09,3.09,0,0,0-1.47.78,2.16,2.16,0,0,0-.37,1.42V39.18a4.73,4.73,0,0,0,.13,1.17,3.15,3.15,0,0,0,.44.88l1.49,1.86a3.59,3.59,0,0,1,.45.73,1.52,1.52,0,0,1,.09.51.69.69,0,0,1-.26.58,1.19,1.19,0,0,1-.76.21h-4.85c-.64,0-.95-.25-.95-.76a1.67,1.67,0,0,0-.14-.69,5.87,5.87,0,0,0-.8-1.15L780.51,18.11l1.75-1.36v24a2.23,2.23,0,0,0,.35,1.39,3.35,3.35,0,0,0,1.51.81l1.38.36C786.12,43.48,786.44,43.81,786.44,44.24Z"/><path class="cls-2" d="M842,44.6a1.65,1.65,0,0,1-.27,1.06,1,1,0,0,1-.85.32,1.19,1.19,0,0,1-.88-.36,3.89,3.89,0,0,1-.64-.83,7.36,7.36,0,0,0-.55-.85.78.78,0,0,0-.65-.37,2.49,2.49,0,0,0-1.16.37c-.45.25-1,.53-1.68.84a13.8,13.8,0,0,1-2.46.83,14.14,14.14,0,0,1-3.47.37,17.64,17.64,0,0,1-6.92-1.29,14.81,14.81,0,0,1-5.21-3.61A15.8,15.8,0,0,1,814,35.53a20.93,20.93,0,0,1-1.14-7,19.45,19.45,0,0,1,1.23-7,17.06,17.06,0,0,1,3.44-5.58,15.76,15.76,0,0,1,5.21-3.68,16.17,16.17,0,0,1,6.53-1.31,15,15,0,0,1,4.31.51,15.37,15.37,0,0,1,2.6,1,3.47,3.47,0,0,0,1.42.51.89.89,0,0,0,.84-.42c.16-.29.32-.58.49-.86a.88.88,0,0,1,.82-.44.84.84,0,0,1,.59.22,1.74,1.74,0,0,1,.39.74l2.56,8.1a1,1,0,0,1-.09.86,1,1,0,0,1-.7.43,1.22,1.22,0,0,1-1.38-.77,16.81,16.81,0,0,0-3-4.58,10.14,10.14,0,0,0-3.74-2.49,12.82,12.82,0,0,0-4.51-.76A10,10,0,0,0,824,14.76a12,12,0,0,0-4,5,17.94,17.94,0,0,0-1.48,7.57A20.64,20.64,0,0,0,820.13,36a12.75,12.75,0,0,0,4.47,5.46A11.22,11.22,0,0,0,831,43.33a11.92,11.92,0,0,0,2.5-.24,6.36,6.36,0,0,0,1.88-.69,3.4,3.4,0,0,0,1.2-1.11A2.7,2.7,0,0,0,837,39.8V33.92a1.16,1.16,0,0,0-.32-.89,2.58,2.58,0,0,0-1.21-.49l-1.67-.31a1.78,1.78,0,0,1-.82-.34.74.74,0,0,1-.28-.59.7.7,0,0,1,.31-.61,1.48,1.48,0,0,1,.93-.23h10.44a1.47,1.47,0,0,1,.92.23.74.74,0,0,1,.29.61.69.69,0,0,1-.2.53,1.81,1.81,0,0,1-.73.37l-1.12.29a2.61,2.61,0,0,0-1.12.5,1.19,1.19,0,0,0-.34.93Z"/><path class="cls-3" d="M460,73a5.7,5.7,0,0,1-3.72-1.19,4.85,4.85,0,0,1-1.77-3.14l2.57-.63a2.86,2.86,0,0,0,3,2.61,2.71,2.71,0,0,0,1.13-.22,1.85,1.85,0,0,0,.8-.63,1.72,1.72,0,0,0,.29-1,1.44,1.44,0,0,0-.3-.91,3,3,0,0,0-.93-.72,15.77,15.77,0,0,0-1.56-.67,12.17,12.17,0,0,1-2.26-1.13,4.17,4.17,0,0,1-1.35-1.4,3.74,3.74,0,0,1-.45-1.88,3.66,3.66,0,0,1,.56-2,3.87,3.87,0,0,1,1.57-1.39A5.16,5.16,0,0,1,460,58.2a4.91,4.91,0,0,1,2.54.66,4.76,4.76,0,0,1,1.78,2l-2.1,1.28a3.46,3.46,0,0,0-1-1.17,2.29,2.29,0,0,0-1.3-.4,2,2,0,0,0-.9.2,1.5,1.5,0,0,0-.63.53,1.29,1.29,0,0,0-.24.78,1.31,1.31,0,0,0,.28.84,2.7,2.7,0,0,0,.89.7,12.81,12.81,0,0,0,1.63.71,10.11,10.11,0,0,1,2.21,1.08,4.29,4.29,0,0,1,1.35,1.37,3.61,3.61,0,0,1,.47,1.91,4.09,4.09,0,0,1-.62,2.25,4.15,4.15,0,0,1-1.72,1.54A5.71,5.71,0,0,1,460,73Z"/><path class="cls-3" d="M476.59,72.94a5,5,0,0,1-2.59-.67,4.9,4.9,0,0,1-1.81-1.86,5.91,5.91,0,0,1,0-5.41A4.78,4.78,0,0,1,474,63.16a5,5,0,0,1,2.6-.68,5,5,0,0,1,2.6.68A4.87,4.87,0,0,1,481,65a5.87,5.87,0,0,1,0,5.39,4.87,4.87,0,0,1-1.79,1.87A4.93,4.93,0,0,1,476.59,72.94Zm0-2.22a2.33,2.33,0,0,0,1.33-.37,2.28,2.28,0,0,0,.86-1,4.5,4.5,0,0,0,0-3.23,2.28,2.28,0,0,0-.86-1,2.4,2.4,0,0,0-1.33-.35,2.52,2.52,0,0,0-1.37.35,2.38,2.38,0,0,0-.88,1,4.5,4.5,0,0,0,0,3.23,2.38,2.38,0,0,0,.88,1A2.44,2.44,0,0,0,476.61,70.72Z"/><path class="cls-3" d="M492.31,72.94a3.91,3.91,0,0,1-2.05-.49A2.88,2.88,0,0,1,489,71.07a5.08,5.08,0,0,1-.4-2.1V62.69h2.53v5.65a4.22,4.22,0,0,0,.16,1.23,1.61,1.61,0,0,0,.58.85,1.83,1.83,0,0,0,1.15.32,1.73,1.73,0,0,0,1.36-.51,2.79,2.79,0,0,0,.63-1.42,11,11,0,0,0,.18-2.13v-4h2.53v10h-2.53V70.56l.34.2a3.15,3.15,0,0,1-1.32,1.67A3.8,3.8,0,0,1,492.31,72.94Z"/><path class="cls-3" d="M508.54,72.74l-4.12-10h2.78l2.36,6.75L512,62.69h2.73l-4.08,10Z"/><path class="cls-3" d="M525.57,72.94a5.43,5.43,0,0,1-2.24-.42,4.21,4.21,0,0,1-1.54-1.16,4.71,4.71,0,0,1-.89-1.65,6.62,6.62,0,0,1-.28-1.95,6.49,6.49,0,0,1,.28-1.91,5.29,5.29,0,0,1,.86-1.69,4.13,4.13,0,0,1,1.48-1.22,4.7,4.7,0,0,1,2.17-.46,4.89,4.89,0,0,1,2.06.4,3.88,3.88,0,0,1,1.45,1.1,4.85,4.85,0,0,1,.86,1.64,6.54,6.54,0,0,1,.3,2c0,.1,0,.23,0,.4s0,.35-.05.54h-6.88a2.24,2.24,0,0,0,.81,1.63,2.76,2.76,0,0,0,1.76.55,4.33,4.33,0,0,0,1.51-.27,4.25,4.25,0,0,0,1.31-.79l1.26,1.71a9.82,9.82,0,0,1-1.34.9,4.92,4.92,0,0,1-1.32.5A7.24,7.24,0,0,1,525.57,72.94Zm2-5.65a3,3,0,0,0,.07-.32,1.71,1.71,0,0,0,0-.31,2,2,0,0,0-.16-.8,2.19,2.19,0,0,0-.45-.67,1.92,1.92,0,0,0-.68-.43,2.38,2.38,0,0,0-.91-.16,2.45,2.45,0,0,0-1.26.31,2.06,2.06,0,0,0-.77.78,3,3,0,0,0-.32,1h5.31Z"/><path class="cls-3" d="M537.22,72.74v-10h2.55v2.73l-.39,0a3.06,3.06,0,0,1,.53-1.55,3.29,3.29,0,0,1,1.15-1,2.89,2.89,0,0,1,1.4-.38,3.85,3.85,0,0,1,1,.13,4,4,0,0,1,.94.44l-1.22,2.29a3.2,3.2,0,0,0-.57-.23,2.35,2.35,0,0,0-.69-.1,2.3,2.3,0,0,0-.79.14,1.89,1.89,0,0,0-.67.45,2.25,2.25,0,0,0-.48.82,3.75,3.75,0,0,0-.13.72,10.57,10.57,0,0,0-.05,1.28v4.32Z"/><path class="cls-3" d="M554.14,72.94a4.62,4.62,0,0,1-2-.4,3.3,3.3,0,0,1-1.36-1.17,3.27,3.27,0,0,1-.14-3.23,2.45,2.45,0,0,1,.94-1,3.8,3.8,0,0,1,1.14-.43,6.92,6.92,0,0,1,1.33-.12h3.12v1.88h-2.75a4.48,4.48,0,0,0-.64,0,1,1,0,0,0-.54.23,1,1,0,0,0-.31.36,1.06,1.06,0,0,0-.1.48,1.11,1.11,0,0,0,.45.92,1.9,1.9,0,0,0,1.2.34,2.54,2.54,0,0,0,1.23-.29,2.3,2.3,0,0,0,.9-.82A2.16,2.16,0,0,0,557,68.6l.67,1.35a4.44,4.44,0,0,1-.81,1.72,3.42,3.42,0,0,1-1.23,1A3.65,3.65,0,0,1,554.14,72.94Zm3-.2-.2-1.51V66.4a1.6,1.6,0,0,0-.56-1.34,2.43,2.43,0,0,0-1.52-.44,4.79,4.79,0,0,0-3.08,1.21l-1.29-1.74a7.12,7.12,0,0,1,2.17-1.23,7.5,7.5,0,0,1,2.4-.38,4.69,4.69,0,0,1,3.24,1,3.64,3.64,0,0,1,1.17,2.88v6.34Zm-5.42-11.6V58.53h2.71v2.61Zm4,0V58.53h2.7v2.61Z"/><path class="cls-3" d="M567,72.74v-10h2.55V65l-.41,0a3.67,3.67,0,0,1,.78-1.47,3.13,3.13,0,0,1,1.18-.8,3.89,3.89,0,0,1,1.39-.26,3.61,3.61,0,0,1,2.68,1,3.7,3.7,0,0,1,1,2.72v6.57h-2.55V67.11a3,3,0,0,0-.45-1.84,1.67,1.67,0,0,0-1.41-.59,1.88,1.88,0,0,0-1.94,1.39,6,6,0,0,0-.24,1.86v4.81Z"/><path class="cls-3" d="M594,72.74v-10h2.55V65.3l-.55.42a4.8,4.8,0,0,1,.49-1.59,3,3,0,0,1,.82-1,3.64,3.64,0,0,1,1-.51,3.72,3.72,0,0,1,1-.15,3.84,3.84,0,0,1,1.51.3,2.91,2.91,0,0,1,1.25,1,4.55,4.55,0,0,1,.73,1.95l-1.51.56a6.15,6.15,0,0,1,.89-2.27,3.41,3.41,0,0,1,1.34-1.19,3.77,3.77,0,0,1,1.63-.36,3.5,3.5,0,0,1,2.08.57,3.4,3.4,0,0,1,1.17,1.46,4.8,4.8,0,0,1,.38,1.89v6.34h-2.53V67a3.7,3.7,0,0,0-.2-1.28,1.64,1.64,0,0,0-.56-.78,1.56,1.56,0,0,0-1-.27,1.68,1.68,0,0,0-1,.33,2,2,0,0,0-.64,1,5.57,5.57,0,0,0-.21,1.67v5.08h-2.53V67a2.87,2.87,0,0,0-.42-1.71,1.41,1.41,0,0,0-1.21-.58,1.73,1.73,0,0,0-1.07.33,1.93,1.93,0,0,0-.67,1,5.24,5.24,0,0,0-.22,1.67v5.08Z"/><path class="cls-3" d="M616.16,61.14V58.53h2.71v2.61Zm.08,11.6v-10h2.53v10Z"/><path class="cls-3" d="M625.31,64.66v-2h6.59v2Zm4.88,8.28a3.73,3.73,0,0,1-1.51-.3,2.49,2.49,0,0,1-1.11-1,3.56,3.56,0,0,1-.42-1.86V60.34L629.72,59V69.09a3,3,0,0,0,.23,1.32,1,1,0,0,0,.93.45,2.6,2.6,0,0,0,.46,0,4.74,4.74,0,0,0,.56-.12v1.94a4.37,4.37,0,0,1-.86.23A4.88,4.88,0,0,1,630.19,72.94Z"/><path class="cls-3" d="M649.46,72.74V58.53h2.63V72.74Zm2.1-4.28V65.11l6.24-6.58h3.55Zm6.71,4.28-4.49-7.16,2-1.83,5.65,9Z"/><path class="cls-3" d="M668.08,72.74V58.53h2.63V72.74Z"/><rect class="cls-1" x="242.4"/></g></g></svg>